<?xml version="1.0" standalone="no"?>
<!DOCTYPE svg PUBLIC "-//W3C//DTD SVG 20010904//EN"
 "http://www.w3.org/TR/2001/REC-SVG-20010904/DTD/svg10.dtd">
<svg version="1.0" xmlns="http://www.w3.org/2000/svg"
 width="188.000000pt" height="188.000000pt" viewBox="0 0 188.000000 188.000000"
 preserveAspectRatio="xMidYMid meet">
<metadata>
Created by potrace 1.14, written by Peter Selinger 2001-2017
</metadata>
<g transform="translate(0.000000,188.000000) scale(0.100000,-0.100000)"
fill="#000000" stroke="none">
<path d="M130 938 l0 -938 160 0 c145 0 160 2 161 18 0 9 1 139 2 288 2 252 3
273 21 293 11 12 25 21 33 21 7 0 13 5 13 10 0 6 4 10 9 10 5 0 96 54 203 121
106 66 200 121 208 122 11 0 453 -266 480 -290 3 -3 5 -136 6 -296 l0 -292
162 -3 162 -2 -2 692 -3 693 -140 87 c-77 49 -160 101 -185 116 -265 167 -452
281 -469 287 -17 5 -91 -33 -181 -95 -35 -24 -296 -183 -307 -187 -10 -4 -13
26 -13 139 l0 144 -160 0 -160 0 0 -938z m918 492 c51 -33 95 -60 96 -60 5 0
257 -159 271 -170 16 -14 17 -222 1 -213 -6 3 -63 38 -126 77 -63 39 -123 76
-132 81 -10 6 -59 36 -109 68 -50 31 -99 57 -110 57 -11 0 -45 -17 -77 -37
-98 -63 -124 -79 -247 -155 -182 -113 -162 -114 -160 5 1 56 3 105 4 108 1 6
109 74 359 227 48 30 91 58 97 63 18 17 41 8 133 -51z"/>
<path d="M780 245 l0 -245 162 2 162 3 -2 170 c0 94 -1 203 -1 243 l-1 72
-160 0 -160 0 0 -245z"/>
</g>
</svg>
